<svg xmlns="http://www.w3.org/2000/svg" viewBox="0 0 419.69 476.94"><defs><style>.cls-1{fill:#ffdba6;}.cls-2{fill:#f0ca99;}.cls-10,.cls-11,.cls-12,.cls-13,.cls-14,.cls-15,.cls-16,.cls-17,.cls-18,.cls-19,.cls-2,.cls-20,.cls-3,.cls-4,.cls-5,.cls-6,.cls-7,.cls-8,.cls-9{fill-rule:evenodd;}.cls-3{fill:#f39c12;}.cls-5{fill:#e69768;}.cls-6{fill:#8b6639;}.cls-7{fill:#fff;}.cls-21,.cls-8{fill:#da0000;}.cls-9{fill:#89898a;}.cls-10{fill:#a90000;}.cls-11{fill:#df6639;}.cls-12{fill:#664723;}.cls-13{fill:#9b831f;}.cls-14{fill:#f0ca30;}.cls-15{fill:#87731b;}.cls-16{fill:#d5b42a;}.cls-17{fill:#bc9f25;}.cls-18{fill:#f6e235;}.cls-19{fill:#ececed;}.cls-20{fill:#dadbdb;}</style></defs><g id="Layer_2" data-name="Layer 2"><g id="objects"><circle class="cls-1" cx="209.85" cy="209.85" r="209.85"/><path class="cls-2" d="M258.51,126s2.16-4.79,12.21-10.2,26.73-.31,36,12.83a45,45,0,0,1,3.58,6c-10.39,9.33-6.29,23.7-6.29,23.7s10.43-2.39,6,4.56-8.43,3.94-8.43,3.94-1,2.16.16,6.1c1,3.38,2.21,3.52,3.27,5.64a66.1,66.1,0,0,1-16.71,11.29c-12.51,5.57-39.56,7.73-51.92-12.36S226.06,129.22,258.51,126Z"/><path class="cls-3" d="M224.78,443.34c32.4,0,58.67,7.52,58.67,16.8s-26.27,16.8-58.67,16.8-58.67-7.52-58.67-16.8,26.27-16.8,58.67-16.8"/><path class="cls-4" d="M310.3,134.56s2.8,2.16,4.78,7.3h0s2.79-.52,3.68.8a3.1,3.1,0,0,1,.44,2.58s2.8-.51,4.42,1.4a4.84,4.84,0,0,1,.81,4.35,3.52,3.52,0,0,1,2.8,2.51,3,3,0,0,1-.81,3.24s2,2.51,1.11,4.86-3.76,1.92-3.76,1.92a3.75,3.75,0,0,1,0,4c-1.4,1.92-4.06,1.4-4.06,1.4s1.41,2.21.45,3.91-4.28,1.55-4.28,1.55a3.25,3.25,0,0,1-1.1,4c-2.21,1.55-3.69.37-3.69.37s1.25,2.35-1.91,2.87S305,178.5,305,178.5c-1.06-2.12-2.28-2.26-3.27-5.64-1.16-3.94-.16-6.1-.16-6.1s4,3,8.43-3.94-6-4.56-6-4.56-4.1-14.37,6.29-23.7"/><path class="cls-4" d="M266.76,119.93s6.18-3.94,9.74-3.63,3.55,1.7,3.55,1.7l-1.77,3.71a5.58,5.58,0,0,0-5.72-2.09,12.05,12.05,0,0,0-5.72,2.32s-1.62-1.16-.08-2m31.53,4.41a10.32,10.32,0,0,1,5.56,5.79,11.38,11.38,0,0,1,.39,7.73H301.3s-.23-5.56-2.55-7.88a6.64,6.64,0,0,0-4.71-2.17S294.73,122.25,298.29,124.34Z"/><path class="cls-5" d="M289,147.05s-4.63-2-6.26-3.86a9,9,0,0,1-2-3.71,22.29,22.29,0,0,1,10.35-7.73c6.88-2.46,5.41,6.88-2.09,15.3m-17.94-14.78s-3.48-1.09-4.78-2.29a6.56,6.56,0,0,1-1.73-2.51,16.05,16.05,0,0,1,6.84-6.33C276.14,118.84,275.81,125.65,271.07,132.27Z"/><path class="cls-4" d="M275.67,151.3a16.19,16.19,0,0,0,9.43,11.13c7.88,3.16,9-1.53,8.23-3.52a2.74,2.74,0,0,0-2.52-1.91s3.56-1.45,5.22,2.95-1.32,12.56-15.73,6.22-17.61-18.85-17.61-18.85-11.59,1-18.93-6.8-4.25-13.44-1.24-15.3,5.25,1.2,5.25,1.2-3.16-1.08-4.52,1.16.17,7.62,8.15,9.56c.9,1.62,2.69,3.11,5.8,4.12a143.85,143.85,0,0,0,15.38,4.09s-1.08,5.26,2.16,5.87a4.28,4.28,0,0,0,.93.08"/><path class="cls-6" d="M253.52,146.26a38,38,0,0,0,9.16,8.28,55.72,55.72,0,0,0,5.83,3,31.46,31.46,0,0,0,5.35,4.93,69.36,69.36,0,0,1-9.71,2.72c-8.27,1.7-16.38.24-16.54-6-.11-4.41,1.55-10.77,2.54-14.15a23,23,0,0,0,3.37,1.23"/><path class="cls-7" d="M249.16,148.68a59.33,59.33,0,0,0,19.58,15.42c2-.55,3.75-1.12,5.12-1.62a31.46,31.46,0,0,1-5.35-4.93,55.72,55.72,0,0,1-5.83-3,38,38,0,0,1-9.16-8.28,23,23,0,0,1-3.37-1.23c-.3,1-.65,2.26-1,3.65"/><path class="cls-8" d="M286.67,190.48s1.5,2.37,1.26,4.07-1.62,2.71-.07,5.33,2.55,4.33,2.7,7.73a11.22,11.22,0,0,1-.93,5.41s-11.82-9.74-22-13.21a114.74,114.74,0,0,0-20.78-4.72,3.43,3.43,0,0,1-1.94,2.63c-1.85,1-4.48-.46-4.48-.46s1.31,9-10.9,14.6S211.74,225,210.82,227.78a39.51,39.51,0,0,0-1.24,7.72,39.2,39.2,0,0,1,.15-23.95c4.33-12.52,7.73-15.14,7.73-15.14s-2-7.73,6.18-8.19,9.27,2.93,11.9,3.09,2.17.31,1.7-1.86a4.36,4.36,0,0,1,.47-3.4s-5-4.32-9-7.26-9.89-3.09-9.89-3.09,4.44-7.4,13.43-6.64h0a50.42,50.42,0,0,0,4.13,8.37c11.84,19.24,37.14,18.07,50.26,13Z"/><path class="cls-7" d="M214.28,359.32c-.42,7-1,19.92-.6,29.17.62,13.29,2.93,42.8,2.85,44.74s2.09,2.47,1.39,4.56-.61,2.47-.15,4,.77,3.25.23,4.18.31,2.7.31,2.7-1.24,1.31-7.34,2-8.58-3.56-8.58-3.56,1.32-1.38-1.62-6.33-39.28-63.33-46.53-96.72c10.8-1.61,28.55-1.35,49.5,10.2a104.58,104.58,0,0,0,10.54,5m54.8,10.55s-1.85,15.68-12.82,39.79-11.9,25.35-10.82,29.13,2.78,6.26,1.47,7.19-.62,4.17-.62,4.17a17,17,0,0,1-6.64.93,36.24,36.24,0,0,1-8-1.08s1.47-.7-.31-2.48-2.7-1.62-1.62-3.24,2.93-1.86,1.16-3.63S223,403.33,219.7,387.41c-2.12-10.42-3.65-21.37-4.45-27.69C235.34,367.83,256.26,369.64,269.08,369.87ZM289.63,213a368.29,368.29,0,0,1,29.51,38.71c13,20.09,19.78,31.21,26.89,40.48a144.08,144.08,0,0,1,11.43,17.31s-5.71,8.81-13.59,11-12.68,1.09-12.68,1.09S319,289.89,308.78,271.66s-18.23-24.1-18.23-24.1c-5.63,27.24-7.74,52-.93,92.71,0,0-24.72,1.23-50.07-15.77s-47.28-25.65-70.46-25S134.47,310,134.47,310s-7.11-26,9.28-62.74S183.3,194.7,183.3,194.7s-17.92-2.47-23.48-2.78-12.37-20.4-22.26-29.67-15.14-12.06-15.14-12.06,5.1,2,11.13-6.18a21,21,0,0,0,3.4-17.15S147.14,144,155.8,158.54,169.09,181,169.09,181s35.4-6.32,49.76-5.25q1,.08,1.89.18a18.19,18.19,0,0,1,8,2.91c4,2.94,9,7.26,9,7.26a4.36,4.36,0,0,0-.47,3.4c.47,2.17.93,2-1.7,1.86s-3.71-3.56-11.9-3.09-6.18,8.19-6.18,8.19-3.4,2.62-7.73,15.14a39.2,39.2,0,0,0-.15,23.95,39.51,39.51,0,0,1,1.24-7.72c.92-2.78,6.49-10.36,18.69-15.92s10.9-14.6,10.9-14.6,2.63,1.46,4.48.46a3.43,3.43,0,0,0,1.94-2.63,114.74,114.74,0,0,1,20.78,4.72C277.81,203.28,289.63,213,289.63,213Z"/><path class="cls-9" d="M124.8,132.44a10.78,10.78,0,0,0-1.54,2.68,25.62,25.62,0,0,0-.84,15.07l.82.18c1.67.2,5.72-.12,10.31-6.36l.18-.26c-3-3.6-6.52-8.17-8.93-11.31M137,126.86a20.42,20.42,0,0,0-3.4.54l3.72,7.57A20.67,20.67,0,0,0,137,126.86Z"/><path class="cls-8" d="M282.41,340h0l-.94,29.61s-43,3.86-77.73-15.3S143,347,143,347s-6.14-28.69-5-39.46c5-3,15.33-7.67,31.08-8.09,23.18-.62,45.12,8,70.46,25A94,94,0,0,0,282.41,340"/><path class="cls-10" d="M143,347a38.39,38.39,0,0,0,15.79,12.26,119.59,119.59,0,0,1-4.56-15.2h0A45.63,45.63,0,0,0,143,347"/><path class="cls-4" d="M217.51,449.18s3,7.14,1.33,9.23-16.92,4.63-26.19,4.87,3.55-7.5,6.95-9.51a7.8,7.8,0,0,0,3.76-5.46,9,9,0,0,0,7.61,2.38,21.57,21.57,0,0,0,6.54-1.51Zm27.76,1.3s1.62,1.67,2.47,7.39.08,18-8.11,9.58-8.33-14.71-7.33-17.28h0a36.11,36.11,0,0,0,7.35.92A20.46,20.46,0,0,0,245.27,450.48Z"/><path class="cls-7" d="M283.7,136.21c2.24.65,5.75,2.46,8,7.47a34.36,34.36,0,0,1-2.66,3.37s-4.63-2-6.26-3.86a9,9,0,0,1-2-3.71,18.71,18.71,0,0,1,2.95-3.27M266.43,124.9a9,9,0,0,1,6.29,4.75,25.63,25.63,0,0,1-1.65,2.62s-3.48-1.09-4.78-2.29a6.56,6.56,0,0,1-1.73-2.51A14.12,14.12,0,0,1,266.43,124.9Z"/><path class="cls-11" d="M272.58,145.35s-1.08,5.26,2.16,5.87a4.12,4.12,0,0,0,4.72-5.56c-1.32-3.09-5.8-4.25-5.8-4.25s1.24-4.4-1.31-5.1-7-1.62-9-4.33-7.65-5.63-10.51-2.78-4.25,9.28,4.32,12.06a143.85,143.85,0,0,0,15.38,4.09"/><path class="cls-4" d="M268.9,125.77a4.36,4.36,0,0,0-1,5.25,25.73,25.73,0,0,0,3.14,1.25,25.63,25.63,0,0,0,1.65-2.62,9.83,9.83,0,0,0-3.82-3.88m2.11,3c-.35-.21-.91,0-1.23.59s-.29,1.14.06,1.36.91-.05,1.24-.58S271.37,129,271,128.8Zm18.47,13.81c-.49-.29-1.25.07-1.7.8s-.4,1.59.09,1.88,1.26-.06,1.7-.8S290,142.91,289.48,142.61ZM287,137.77a6,6,0,0,0-2.11,7.09,34.08,34.08,0,0,0,4.15,2.19,34.36,34.36,0,0,0,2.66-3.37A13.76,13.76,0,0,0,287,137.77Z"/><path class="cls-12" d="M262.69,165.47c-3.57-6.35-10.53-8.05-15-8.46a54.2,54.2,0,0,1,1.48-8.33,59.33,59.33,0,0,0,19.58,15.42c-1.39.39-2.93.76-4.59,1.1-.49.1-1,.19-1.46.27"/><path class="cls-2" d="M137.27,135l-5-10.27c-8,.38-16.59.59-25.52.59-7.37,0-14.5-.14-21.28-.4A6.55,6.55,0,0,0,88,126.24s-2.86,2.24-.85,4.48,6.42-2.24,14.14-2.09,11.59,1.4,15.22,1.32a12.89,12.89,0,0,0,5.57-1.16s6.68,8.88,11.7,15a20.15,20.15,0,0,0,3.54-8.78"/><path class="cls-2" d="M342.18,320.92l3.4,5.94a9.34,9.34,0,0,0-1.69,7.57c.85,4.71-2.94,7.49-5.26,6.41s-5.25,2.78-.62,4.87,10.2,1.55,13.14-2,4.94-6.49,8.27-5.79,5,2,6.87,1.08,9.89.77,15.61-1.31,5.18-4.49,5.18-4.49,4.79-1.08,5.79-4.17-3.24-4.17-3.24-4.17,2.86-2.24.85-4.48-6.42,2.24-14.14,2.08-11.59-1.39-15.22-1.31a12.89,12.89,0,0,0-5.57,1.16s-2.08-3.08-4.15-6a20.29,20.29,0,0,1-7.53,4.22C343.29,320.65,342.72,320.79,342.18,320.92Z"/><path class="cls-5" d="M389.63,324.85s-5.12,1.06-10.45,1.76a26.77,26.77,0,0,1-8.65-.08,85.31,85.31,0,0,0,20.56-3.77A4.69,4.69,0,0,1,389.63,324.85Zm.67.23-.66-.23C389.7,324.87,390,324.94,390.3,325.08Zm-3.22,8.11s-6.82-.2-11.15-.51a44.81,44.81,0,0,1-6.56-.85s13.38.93,22.45-1.12A10.87,10.87,0,0,1,387.08,333.19Zm-51.51,9.49s8.54,4,12.32-.5,7.57-10.05,12.51-8.11S371,337.73,380.8,338c-5.6,1.54-12.77.1-14.51,1s-3.55-.39-6.87-1.08-5.34,2.24-8.27,5.79-8.5,4.1-13.14,2C336.09,344.85,335.47,343.68,335.57,342.68Z"/><path class="cls-7" d="M254.21,131.5c-.5-.17-1-.09-1.08.19s.24.63.73.8,1,.09,1.08-.18-.24-.64-.73-.81m2.26-2.35c-1.07-.36-2.1-.19-2.3.39s.51,1.34,1.58,1.71,2.1.2,2.3-.38S257.54,129.52,256.47,129.15Z"/><path class="cls-13" d="M44.09,107c-10.9,1.93-17.42,4.37-17.42,7,0,6.23,35.84,11.28,80,11.28s80.05-5.05,80.05-11.28c0-2.66-6.52-5.1-17.42-7,.51,1.76.94,3.54,1.3,5.36-41.91,6.66-84.54,6.45-127.85,0,.36-1.82.79-3.6,1.3-5.36"/><path class="cls-14" d="M103.39,60.46c-30.21,1.5-55,23.31-60.6,51.88,43.31,6.45,85.94,6.66,127.85,0C165,83.77,140.24,62,110,60.46V62h-6.64Z"/><path class="cls-4" d="M106.71,52.72c-3.39,0-6.14,1.35-6.14,3,0,1.06,1.13,2,2.82,2.53V62H110V58.27c1.7-.53,2.83-1.47,2.83-2.53,0-1.67-2.75-3-6.15-3"/><path class="cls-15" d="M44,107.26c-3.8,1.09-5.92,2.3-5.92,3.58,0,4.87,30.73,8.81,68.62,8.81s68.62-3.94,68.62-8.81c0-1.28-2.11-2.49-5.91-3.58h0a41,41,0,0,1,1.22,4l-.23,0,.23,1.09c-41.91,6.66-84.54,6.45-127.85,0l.22-1.09-.22,0a38.39,38.39,0,0,1,1.22-4Z"/><path class="cls-14" d="M184.32,114s-3.55,4.7-29.51,7.49a359.19,359.19,0,0,1-44.35,2.24s46.21-1.51,73.86-9.73"/><path class="cls-16" d="M84.94,64.06a104.52,104.52,0,0,0-29.11,50q-3.61-.44-7.24-.93C53.2,99.75,60.65,84,72.67,69.85a65,65,0,0,1,12.27-5.79m30.19-3.15C108.35,67.72,93.28,85.8,89.72,115c-.07.63-.15,1.24-.24,1.84q-15-.64-30.09-2.35A101.19,101.19,0,0,1,91.75,62.09a65.67,65.67,0,0,1,11.64-1.63V62H110V60.46Q112.61,60.6,115.13,60.91Z"/><path class="cls-17" d="M66.92,94a80.85,80.85,0,0,0,25.51,7.13A99.37,99.37,0,0,0,89.72,115c-.07.63-.15,1.24-.24,1.84q-15-.64-30.09-2.35A100.53,100.53,0,0,1,66.92,94m-7.85-4.43c1.47,1,3.07,1.94,4.8,2.88a100.4,100.4,0,0,0-8,21.65q-3.61-.44-7.24-.93A145.41,145.41,0,0,1,59.07,89.56Z"/><path class="cls-18" d="M142.2,70.75c-6.64,9.76-16.59,26.56-21.94,46.31q8.52-.25,17-.87a113.45,113.45,0,0,1,16-36.5,65.24,65.24,0,0,0-11-8.94"/><path class="cls-10" d="M219,195.86s-.85-3.79,4.64-5,10.66,3.33,7.8,9.27-12.67,7-15.61,9a18.56,18.56,0,0,0-4.71,4.87s2.93-11.29,6.64-14.38,10-2.39,10-2.39-5.18-2.94-8.81-1.39m17.4-18.43c11.84,19.24,37.14,18.07,50.26,13,0,0,1.5,2.37,1.26,4.07-.13,1-.64,1.73-.77,2.68-51.57,4.2-54.88-28.17-54.88-28.17A49.65,49.65,0,0,0,236.41,177.43Zm4,19.83s1.31,9-10.9,14.6S211.74,225,210.82,227.78a39.51,39.51,0,0,0-1.24,7.72c-2-19.77,9.74-21.95,20.56-28.13s6.61-13.83,6.61-13.83,3.16,2.63,6.21,2.82,3.87-1.27,3.87-1.27a3.43,3.43,0,0,1-1.94,2.63C243,198.72,240.41,197.26,240.41,197.26Z"/><path class="cls-19" d="M183.3,194.7s-17.92-2.47-23.48-2.78-12.37-20.4-22.26-29.67a110.58,110.58,0,0,0-12.82-10.6c10.67-1.44,14.78-11.78,14.78-11.78a12.86,12.86,0,0,1,0,3.47,29.34,29.34,0,0,1-1.54,6.19,22.4,22.4,0,0,1,4.48,5.4c2.48,3.87,18.47,32,18.47,32a41.76,41.76,0,0,0,15.61,1.7c8.42-.77,20.48-2.32,20.48-2.32Zm107.25,52.86c-5.63,27.24-7.74,52-.93,92.71,0,0-16.25.81-35.91-7.94C266.9,309.69,270,251.45,270,251.45s-2.55-3.71-3-10.35a26,26,0,0,1,2-11.83,26.12,26.12,0,0,0,1.78,10,14.22,14.22,0,0,0,5.48,6.72,18.86,18.86,0,0,1-4.25-8c-1.31-5.1.39-14.3.39-14.3a30.07,30.07,0,0,0,5.41,13.14C282.32,242.49,290.55,247.56,290.55,247.56Zm-53.38-58.5c-3.66-3.66-10.51-10-17.24-13.27l.81.09a18.19,18.19,0,0,1,8,2.91c4,2.94,9,7.26,9,7.26A4.21,4.21,0,0,0,237.17,189.06Zm-16.75,61.85a4.66,4.66,0,1,0,3.63-8.33,4.63,4.63,0,0,1,1.9,3.74v.15a1,1,0,0,1-.34,1.61,4.66,4.66,0,0,1-4.32,2.91A4.91,4.91,0,0,1,220.42,250.91Zm-1.55-5.51a4.77,4.77,0,0,0-.34,1.61,1,1,0,1,0,.34-1.61Zm-2,25.29a4.66,4.66,0,1,0,3.63-8.33,4.63,4.63,0,0,1,1.9,3.74v.15a1,1,0,0,1-.34,1.61,4.66,4.66,0,0,1-4.31,2.91A4.94,4.94,0,0,1,216.84,270.69Zm-1.55-5.51a4.77,4.77,0,0,0-.34,1.61,1,1,0,0,0,.73.32,1,1,0,1,0-.39-1.93ZM214.06,296a4.66,4.66,0,1,0,3.63-8.33,4.65,4.65,0,0,1,1.9,3.75v.14a1,1,0,0,1-.34,1.61,4.65,4.65,0,0,1-4.32,2.91A4.91,4.91,0,0,1,214.06,296Zm-1.55-5.5a4.77,4.77,0,0,0-.34,1.6,1,1,0,0,0,.73.32,1,1,0,1,0,0-2A.85.85,0,0,0,212.51,290.53Zm-23.06-68.25a4.66,4.66,0,1,0,3.64-8.33A4.65,4.65,0,0,1,195,218.2a1,1,0,0,1,.26.86,1,1,0,0,1-.76.8,4.65,4.65,0,0,1-4.94,2.43Zm-1.36-5.9a4.89,4.89,0,0,0-.46,1.35c0,.1,0,.2,0,.3a1,1,0,0,0,.56.31,1,1,0,0,0,.35-2A.94.94,0,0,0,188.09,216.38Zm-9.27,25.49a4.66,4.66,0,1,0,3.64-8.33,4.64,4.64,0,0,1,1.86,4.25,1,1,0,0,1-.5,1.66,4.66,4.66,0,0,1-4.94,2.43ZM177.46,236a4.77,4.77,0,0,0-.45,1.35c0,.1,0,.21,0,.31a1.06,1.06,0,0,0,.56.3,1,1,0,0,0,.35-2A1.13,1.13,0,0,0,177.46,236Zm-5.59,24.77a4.66,4.66,0,1,0,3.64-8.33,4.64,4.64,0,0,1,1.86,4.25,1,1,0,0,1,.26.86,1,1,0,0,1-.76.8,4.66,4.66,0,0,1-4.94,2.43Zm-1.36-5.9a4.94,4.94,0,0,0-.46,1.34c0,.11,0,.21,0,.31a1,1,0,1,0,.91-1.67A.94.94,0,0,0,170.51,254.83Zm-5.77,30.38a4.66,4.66,0,1,0,3.64-8.33,4.64,4.64,0,0,1,1.86,4.25,1,1,0,0,1-.5,1.65,4.66,4.66,0,0,1-4.94,2.44Zm-1.36-5.91a4.77,4.77,0,0,0-.45,1.35c0,.1,0,.21-.05.31a1.06,1.06,0,0,0,.56.3,1,1,0,0,0,.35-2A1.13,1.13,0,0,0,163.38,279.3Zm67-55.11a1,1,0,1,0,1,1A1,1,0,0,0,230.38,224.19Zm-7.07,21.13a1,1,0,1,0,1,1A1,1,0,0,0,223.31,245.32Zm-3.58,19.78a1,1,0,1,0,1,1A1,1,0,0,0,219.73,265.1ZM217,290.45a1,1,0,1,0,1,1A1,1,0,0,0,217,290.45Zm-24.46-73.38a1,1,0,1,0,.81,1.16A1,1,0,0,0,192.49,217.07Zm-10.63,19.58a1,1,0,1,0,.81,1.16A1,1,0,0,0,181.86,236.65Zm-7,18.86a1,1,0,1,0,.81,1.16A1,1,0,0,0,174.91,255.51ZM167.78,280a1,1,0,1,0,.81,1.16A1,1,0,0,0,167.78,280Zm59.72-50.21a4.66,4.66,0,1,0,3.63-8.34,4.69,4.69,0,0,1,1.89,3.75v.15a1,1,0,0,1,.27.68,1,1,0,0,1-.61.93,4.68,4.68,0,0,1-4.32,2.91A4.74,4.74,0,0,1,227.5,229.78ZM226,224.27a4.33,4.33,0,0,0-.34,1.61,1,1,0,1,0,.34-1.61Zm-11.67,135c-.42,7-1,19.92-.6,29.17.62,13.29,2.93,42.8,2.85,44.74s2.09,2.47,1.39,4.56-.61,2.47-.15,4,.77,3.25.23,4.18.31,2.7.31,2.7-1.24,1.31-7.34,2c2.06-3.3.33-5-.59-6.59s-1.63-2.47-1.7-6-7.42-14.36-9.51-19.54-.92-6,2-.46,5.95,5.94,3.33-9.35-9.12-16.69-7.89-3.4-6.33-7-13-24.57a208.9,208.9,0,0,1-9.56-36.67,86.11,86.11,0,0,1,29.66,10.2A104.58,104.58,0,0,0,214.28,359.32Zm25.44,7.52c0,.11,2.18,6.37,2.34,25.8.15,19.63-5.1,27.36-.62,20.71s4.79-.39,1.7,6.65-5.33,9.5-4.56,4.32-.54-4.79-1.54.16.69,11.9-.08,14.22-2.32,2.85,0,4.55,5.09,3.71,1.92,7.8l.77,0a17,17,0,0,0,6.64-.93s-.69-3.25.62-4.17-.39-3.4-1.47-7.19-.15-5,10.82-29.13,12.82-39.79,12.82-39.79A171.7,171.7,0,0,1,239.72,366.84Zm113.42-52.16s-26.66-42.27-38.4-59.26-19.47-31.84-31.06-41.11-35.39-14.06-35.39-14.06-.63,2.32-5.49,7.44c-3.34,13.12-16.27,66.9-15.19,109.28-.79-.46-1.58-.92-2.37-1.36-.71-39.64,10.34-88.44,14.52-105.38-5.56,3.58-13.84,4.93-19,9-6.1,4.83-8.69,15.33-8.69,15.33a81.64,81.64,0,0,1-.05-9.09c2.33-3.55,7.83-9.23,17.51-13.64,12.21-5.56,10.9-14.6,10.9-14.6s2.63,1.46,4.48.46a3.43,3.43,0,0,0,1.94-2.63,114.74,114.74,0,0,1,20.78,4.72c10.2,3.47,22,13.21,22,13.21a368.29,368.29,0,0,1,29.51,38.71c13,20.09,19.78,31.21,26.89,40.48a144.08,144.08,0,0,1,11.43,17.31A34.36,34.36,0,0,1,353.14,314.68Z"/><path class="cls-4" d="M226.34,224.19a1,1,0,1,0,1,1,1,1,0,0,0-1-1m4,0a1,1,0,1,0,1,1A1,1,0,0,0,230.38,224.19Zm-11.12,21.13a1,1,0,1,0,1,1A1,1,0,0,0,219.26,245.32Zm4.05,0a1,1,0,1,0,1,1A1,1,0,0,0,223.31,245.32Zm-2-3.66a4.67,4.67,0,1,0,4.67,4.66A4.66,4.66,0,0,0,221.28,241.66Zm-5.6,23.44a1,1,0,1,0,1,1A1,1,0,0,0,215.68,265.1Zm4,0a1,1,0,1,0,1,1A1,1,0,0,0,219.73,265.1Zm-2-3.66a4.67,4.67,0,1,0,4.66,4.66A4.67,4.67,0,0,0,217.71,261.44Zm-4.81,29a1,1,0,1,0,1,1A1,1,0,0,0,212.9,290.45Zm4,0a1,1,0,1,0,1,1A1,1,0,0,0,217,290.45Zm-2-3.66a4.66,4.66,0,1,0,4.67,4.66A4.66,4.66,0,0,0,214.92,286.79ZM188.5,216.37a1,1,0,1,0,.81,1.15A1,1,0,0,0,188.5,216.37Zm4,.7a1,1,0,1,0,.81,1.16A1,1,0,0,0,192.49,217.07Zm-1.36-4a4.66,4.66,0,1,0,3.78,5.4A4.66,4.66,0,0,0,191.13,213.11ZM177.87,236a1,1,0,0,0-1.16.81,1,1,0,1,0,2,.35A1,1,0,0,0,177.87,236Zm4,.7a1,1,0,1,0,.81,1.16A1,1,0,0,0,181.86,236.65Zm-1.36-4a4.66,4.66,0,1,0,3.78,5.4A4.66,4.66,0,0,0,180.5,232.7Zm-9.58,22.11a1,1,0,1,0,.81,1.16A1,1,0,0,0,170.92,254.81Zm4,.7a1,1,0,1,0,.81,1.16A1,1,0,0,0,174.91,255.51Zm-1.36-3.95a4.66,4.66,0,1,0,3.78,5.4A4.66,4.66,0,0,0,173.55,251.56Zm-9.76,27.73a1,1,0,0,0-1.16.81,1,1,0,0,0,2,.35A1,1,0,0,0,163.79,279.29Zm4,.7a1,1,0,1,0,.81,1.16A1,1,0,0,0,167.78,280ZM166.42,276a4.66,4.66,0,1,0,3.78,5.4A4.66,4.66,0,0,0,166.42,276Zm61.94-55.51a4.67,4.67,0,1,0,4.66,4.66A4.66,4.66,0,0,0,228.36,220.53Z"/><path class="cls-7" d="M271.12,115.56l6.16-13s-7.11-.39-8.42-9,3.55-11.43,3.55-11.43S274,70.25,284.85,66.3s21.87,10.13,21.87,10.13,14.52-8.12,31.52,2.85,6.65,29.52,6.65,29.52,12.2,6.18,10.66,21.94S336,139.09,336,139.09s1.31,5.17-4.56,6.18-11.74-8.89-11.74-8.89l-4.62,5.48h0c-2-5.14-4.78-7.3-4.78-7.3a45,45,0,0,0-3.58-6c-9.15-13-25.51-18.1-35.6-13Z"/><path class="cls-19" d="M341.54,112.47c-2.29,4.38-8.38,7.88-12.91,9.51,0,0,.78,8,8.73,10.19s15.84-8.88,4.18-19.7m-5.76-34.66q1.22.68,2.46,1.47c17,11,6.65,29.52,6.65,29.52s12.2,6.18,10.66,21.94S336,139.09,336,139.09s1.31,5.17-4.56,6.18-11.74-8.89-11.74-8.89l-4.62,5.48h0c-2-5.14-4.78-7.3-4.78-7.3a45,45,0,0,0-3.58-6c8.68-.26,9.56-5.39,9.56-5.39s-10.93-2.43-15-7.3a20.67,20.67,0,0,1-4.71-9.69,25.14,25.14,0,0,1-8.08.3,10.72,10.72,0,0,1-5.79-2.62s4.32.23,7.8,0a34.83,34.83,0,0,0,7.54-1.55,25.71,25.71,0,0,0,5.64,9.89c4.25,4.56,14.29,6,14.29,6C334,116.6,350.62,95.43,335.78,77.81ZM290,65.66c9,.8,16.74,10.77,16.74,10.77-6.05,3.62-10.34,12-10.34,12s3.71-6.34,2.16-13.44S290.24,65.74,290,65.66ZM272.41,82.07a10,10,0,0,0,.72,6.35,22.14,22.14,0,0,0,4.4,5.87,11.22,11.22,0,0,1-8.81-5.24C269.27,83.86,272.41,82.07,272.41,82.07Z"/><path class="cls-20" d="M310,133.87a9,9,0,0,0,3.36-.79,24.28,24.28,0,0,0,6.18-4.71s.08,4.17,6.26,6,9-.69,9-.69,17.41,11.89,20.34-11.24a25,25,0,0,1,.5,8.28C354,146.5,336,139.09,336,139.09s1.31,5.17-4.56,6.18-11.74-8.89-11.74-8.89l-4.62,5.48h0c-2-5.14-4.78-7.3-4.78-7.3Z"/><path class="cls-20" d="M290.55,247.56a23,23,0,0,1-7.38-2.83,38.23,38.23,0,0,1-7.88-7s3,6.65,5.45,9a29.32,29.32,0,0,0,5.1,3.82s-5.68,0-9.77-2.16a15.58,15.58,0,0,1-5.92-5.53s.78,5.33,3.75,8.12a39.31,39.31,0,0,0,7.61,5.13s-4.68,32.37-4.83,47.06-.4,28.76-6.3,34.78a75.81,75.81,0,0,0,19.24,2.31c-6.81-40.69-4.7-65.47.93-92.71"/><path class="cls-10" d="M137.93,313.09c6.67-4.28,17.3-8.29,33.2-7.29,32,2,38.48,15.61,62,29.21s29.61,28.35,6.62,31.82a165.34,165.34,0,0,0,41.75,2.75l.94-29.61h0a94,94,0,0,1-42.86-15.47c-25.34-17-47.28-25.65-70.46-25-15.75.42-26.08,5.12-31.08,8.09a37.78,37.78,0,0,0-.08,5.53"/><path class="cls-20" d="M214.28,359.32c-.42,7-1,19.92-.6,29.17.62,13.29,2.93,42.8,2.85,44.74s2.09,2.47,1.39,4.56-.61,2.47-.15,4,.77,3.25.23,4.18.31,2.7.31,2.7a6.3,6.3,0,0,1-2.7,1.17h0a6.56,6.56,0,0,0-.45-6.14c-1.4-2.39-1.24-2.78-.47-5.49s-1.23-7.64-5.25-24.34-9.28-61.45-9.28-61.48c1.18.59,2.38,1.22,3.58,1.88a104.58,104.58,0,0,0,10.54,5m46.23,10.19s3,9.42-7.34,34.87S241.43,433,242.82,437.22s3.56,6.8,2.47,8.27-1.52,2.59-1.07,5.23a10.14,10.14,0,0,0,2.07-.57s-.69-3.25.62-4.17-.39-3.4-1.47-7.19-.15-5,10.82-29.13,12.82-39.79,12.82-39.79C266.53,369.83,263.64,369.72,260.51,369.51Z"/><path class="cls-21" d="M133.1,158.21c-1.93-1.67-3.62-3-5-4.13,11.23-3.43,14.79-10.35,15.79-15.6l3.85,6.48c-2.14,4.91-6.4,10-14.61,13.25M353.73,303.27c-3.91,6.21-11.12,12.42-24.37,13.67-.6-1.52-1.35-3.37-2.19-5.44,13.73-.84,20.13-7.59,23.1-13.46C351.59,300,352.75,301.72,353.73,303.27Z"/><path class="cls-5" d="M269.68,185.27c23.82-2,31.93-18.51,31.93-18.51s-1,2.16.16,6.1c1,3.38,2.21,3.52,3.27,5.64a66.1,66.1,0,0,1-16.71,11.29c-.53.24-1.08.47-1.66.69-13.12,5-38.42,6.19-50.26-13a49.65,49.65,0,0,1-4.13-8.37,44.85,44.85,0,0,1-2.44-9.09C234.36,174.39,245.86,187.31,269.68,185.27Z"/><path class="cls-5" d="M246,155.06a9.13,9.13,0,0,0,1.62,10.12c4.41,4.71,13.52,3,13.52,3a17,17,0,0,1-12.75.85C241.71,166.65,242.56,157.45,246,155.06Z"/><path class="cls-5" d="M303.52,162.05s2.59-2.82,4.21-1.66-2.08,4.71-3.9,4.44,1.58-2,1.58-2S302.9,162.79,303.52,162.05Z"/></g></g></svg>